<?xml version="1.0" encoding="UTF-8"?>
<!-- Generated by Pixelmator Pro 3.6.3 -->
<svg width="919" height="79" viewBox="0 0 919 79" xmlns="http://www.w3.org/2000/svg">
    <clipPath id="clipPath1">
        <path d="M 25 18.5 L 374 18.5 L 374 60.5 L 25 60.5 Z"/>
    </clipPath>
    <g id="Group" clip-path="url(#clipPath1)">
        <path id="LUMIO" fill="#ebe5d9" fill-rule="evenodd" stroke="none" d="M 316.692017 20.824001 C 306.756012 20.824001 298.692017 28.551998 298.692017 38.104 C 298.692017 47.655998 306.756012 55.384003 316.692017 55.384003 C 326.675995 55.384003 334.691986 47.655998 334.691986 38.104 C 334.691986 28.551998 326.675995 20.824001 316.692017 20.824001 Z M 316.692017 48.952 C 310.644012 48.952 305.748016 44.104 305.748016 38.104 C 305.748016 32.152 310.644012 27.256001 316.692017 27.256001 C 322.740021 27.256001 327.684021 32.152 327.684021 38.104 C 327.684021 44.104 322.740021 48.952 316.692017 48.952 Z M 292.980011 21.16 L 286.067993 21.16 L 286.067993 55 L 292.980011 55 Z M 275.556 21.16 L 261.540009 40.551998 L 247.524002 21.16 L 244.164001 21.16 L 244.164001 55 L 251.028 55 L 251.028 36.279999 L 261.540009 50.968002 L 272.003998 36.279999 L 272.003998 55 L 278.916016 55 L 278.916016 21.16 Z M 237.492004 21.16 L 230.772003 21.16 L 230.772003 39.639999 C 230.772003 45.976002 227.940002 49.048 222.468002 49.048 C 217.091995 49.048 214.259995 46.023998 214.259995 39.639999 L 214.259995 21.16 L 207.539993 21.16 L 207.539993 41.416 C 207.539993 49.239998 212.675995 55.384003 222.468002 55.384003 C 232.307999 55.384003 237.492004 49.192001 237.492004 41.416 Z M 186.468002 49.239998 L 186.468002 21.16 L 179.604004 21.16 L 179.604004 55 L 203.891998 55 L 203.891998 49.239998 Z"/>
        <clipPath id="clipPath2">
            <path d="M 66 0.5 L 66 0.5 C 87.539105 0.5 105 17.960895 105 39.5 L 105 39.5 C 105 61.039105 87.539105 78.5 66 78.5 L 66 78.5 C 44.460895 78.5 27 61.039105 27 39.5 L 27 39.5 C 27 17.960895 44.460895 0.5 66 0.5 Z"/>
        </clipPath>
        <g id="lumio-sign-black" clip-path="url(#clipPath2)">
            <linearGradient id="linearGradient1" x1="35.508922" y1="39.203925" x2="96.48955" y2="39.692888" gradientUnits="userSpaceOnUse">
                <stop offset="1e-05" stop-color="#8d29c1" stop-opacity="0"/>
                <stop offset="1" stop-color="#8d29c1" stop-opacity="1"/>
            </linearGradient>
            <path id="Path" fill="url(#linearGradient1)" stroke="none" d="M 27 0.5 L 95.25 29.75 L 95.25 49.25 L 27 78.5 L 27 0.5 Z"/>
            <linearGradient id="linearGradient2" x1="27" y1="39.203925" x2="96.48955" y2="39.203925" gradientUnits="userSpaceOnUse">
                <stop offset="1e-05" stop-color="#f03f77" stop-opacity="0"/>
                <stop offset="1" stop-color="#f03f77" stop-opacity="1"/>
            </linearGradient>
            <path id="path1" fill="url(#linearGradient2)" stroke="none" d="M 27 17.931538 L 95.25 29.75 L 95.25 49.25 L 27 59.058014 L 27 17.931538 Z"/>
            <path id="path2" fill="#ffffff" stroke="none" d="M 105 39.5 C 105 44.884777 100.634773 49.25 95.25 49.25 C 89.865227 49.25 85.5 44.884777 85.5 39.5 C 85.5 34.115223 89.865227 29.75 95.25 29.75 C 100.634773 29.75 105 34.115223 105 39.5 Z"/>
        </g>
    </g>
    <path id="path3" fill="#b4b4b4" stroke="none" d="M 431.075012 50.095501 L 431.075012 47.764801 L 419.753998 47.764801 L 419.753998 40.470299 L 430.196991 40.470299 L 430.196991 38.139702 L 419.753998 38.139702 L 419.753998 31.208401 L 430.710999 31.208401 L 430.710999 28.908001 L 417 28.908001 L 417 50.095501 L 431.075012 50.095501 Z"/>
    <path id="path4" fill="#b4b4b4" stroke="none" d="M 441.248993 50.095501 L 445.970001 42.377201 C 446.27301 41.892899 446.545013 41.4692 446.817993 40.984901 L 447.665009 42.377201 L 452.386993 50.095501 L 455.626007 50.095501 L 448.604004 39.077999 L 455.019989 28.908001 L 451.963013 28.908001 L 447.937988 35.4459 C 447.575012 36.051201 447.242004 36.626301 446.908997 37.1409 C 446.575989 36.626301 446.212006 36.021 445.880005 35.4459 L 441.884003 28.908001 L 438.705994 28.908001 L 445.153015 39.077999 L 438.131012 50.095501 L 441.248993 50.095501 Z"/>
    <path id="path5" fill="#b4b4b4" stroke="none" d="M 466.524994 50.095501 L 466.524994 40.924301 L 471.489014 40.924301 C 475.333008 40.924301 478.752991 39.562302 478.752991 34.931301 C 478.752991 30.2701 475.181 28.908001 471.489014 28.908001 L 463.769989 28.908001 L 463.769989 50.095501 L 466.524994 50.095501 Z M 466.524994 31.208401 L 471.458008 31.208401 C 474.696991 31.208401 475.937988 32.661201 475.937988 34.931301 C 475.937988 37.171101 474.696991 38.624001 471.458008 38.624001 L 466.524994 38.624001 L 466.524994 31.208401 Z"/>
    <path id="path6" fill="#b4b4b4" stroke="none" d="M 501.722992 50.095501 L 501.722992 47.764801 L 490.100006 47.764801 L 490.100006 28.908001 L 487.346008 28.908001 L 487.346008 50.095501 L 501.722992 50.095501 Z"/>
    <path id="path7" fill="#b4b4b4" stroke="none" d="M 516.95697 50.5495 C 522.19397 50.5495 525.825989 46.3423 525.825989 39.501701 C 525.825989 32.661201 522.223999 28.423698 516.95697 28.423698 C 511.69101 28.423698 508.058014 32.661201 508.058014 39.501701 C 508.058014 46.3423 511.721008 50.5495 516.95697 50.5495 Z M 516.95697 48.2491 C 513.325012 48.2491 510.963989 44.980202 510.963989 39.501701 C 510.963989 33.993 513.35498 30.754402 516.95697 30.754402 C 520.528992 30.754402 522.919983 33.993 522.919983 39.501701 C 522.919983 44.980202 520.559021 48.2491 516.95697 48.2491 Z"/>
    <path id="path8" fill="#b4b4b4" stroke="none" d="M 537.398987 50.095501 L 537.398987 40.8335 L 542.120972 40.8335 C 545.268982 40.8335 546.570007 41.862598 546.570007 45.222401 L 546.570007 50.095501 L 549.325012 50.095501 L 549.325012 44.465698 C 549.325012 41.681 547.872009 39.955799 545.874023 39.622799 C 547.781006 39.047699 549.778992 37.1409 549.778992 34.477299 C 549.778992 30.905701 547.205994 28.908001 543.150024 28.908001 L 534.64502 28.908001 L 534.64502 50.095501 L 537.398987 50.095501 Z M 537.398987 31.208401 L 542.484009 31.208401 C 545.330017 31.208401 546.963989 32.419102 546.963989 34.8102 C 546.963989 37.201401 545.330017 38.502899 542.484009 38.502899 L 537.398987 38.502899 L 537.398987 31.208401 Z"/>
    <path id="path9" fill="#b4b4b4" stroke="none" d="M 573.221008 50.095501 L 573.221008 47.764801 L 561.900024 47.764801 L 561.900024 40.470299 L 572.343018 40.470299 L 572.343018 38.139702 L 561.900024 38.139702 L 561.900024 31.208401 L 572.856995 31.208401 L 572.856995 28.908001 L 559.145996 28.908001 L 559.145996 50.095501 L 573.221008 50.095501 Z"/>
    <path id="path10" fill="#b4b4b4" stroke="none" d="M 584.968994 50.095501 L 584.968994 40.8335 L 589.690002 40.8335 C 592.838013 40.8335 594.140015 41.862598 594.140015 45.222401 L 594.140015 50.095501 L 596.893982 50.095501 L 596.893982 44.465698 C 596.893982 41.681 595.440979 39.955799 593.44397 39.622799 C 595.349976 39.047699 597.348022 37.1409 597.348022 34.477299 C 597.348022 30.905701 594.775024 28.908001 590.718994 28.908001 L 582.213989 28.908001 L 582.213989 50.095501 L 584.968994 50.095501 Z M 584.968994 31.208401 L 590.054016 31.208401 C 592.898987 31.208401 594.53302 32.419102 594.53302 34.8102 C 594.53302 37.201401 592.898987 38.502899 590.054016 38.502899 L 584.968994 38.502899 L 584.968994 31.208401 Z"/>
    <path id="path11" fill="#b4b4b4" stroke="none" d="M 632.521973 54 C 629.70697 50.428398 627.679016 46.433102 627.679016 40.984901 C 627.679016 35.536701 629.70697 31.601898 632.521973 28 L 629.979004 28 C 627.224976 31.026802 625.046021 35.264301 625.046021 41.015099 C 625.046021 46.765999 627.224976 50.973202 629.979004 54 L 632.521973 54 Z"/>
    <path id="path12" fill="#b4b4b4" stroke="none" d="M 649.745972 50.095501 C 653.892029 50.095501 657.767029 48.8545 657.767029 44.132702 C 657.767029 41.499401 656.223022 39.683399 653.710999 38.8964 C 655.617981 38.291 657.252014 36.5355 657.252014 34.235199 C 657.252014 30.5728 654.497986 28.908001 650.53302 28.908001 L 642.723999 28.908001 L 642.723999 50.095501 L 649.745972 50.095501 Z M 645.507996 31.208401 L 650.351013 31.208401 C 653.317017 31.208401 654.437012 32.5704 654.437012 34.446999 C 654.437012 36.596001 652.893982 37.837002 650.138977 37.837002 L 645.507996 37.837002 L 645.507996 31.208401 Z M 645.507996 40.167599 L 650.078979 40.167599 C 653.83197 40.167599 654.952026 41.802101 654.952026 43.9814 C 654.952026 46.493599 653.499023 47.764801 650.200012 47.764801 L 645.507996 47.764801 L 645.507996 40.167599 Z"/>
    <path id="path13" fill="#b4b4b4" stroke="none" d="M 680.971008 50.095501 L 680.971008 47.764801 L 669.650024 47.764801 L 669.650024 40.470299 L 680.093018 40.470299 L 680.093018 38.139702 L 669.650024 38.139702 L 669.650024 31.208401 L 680.606995 31.208401 L 680.606995 28.908001 L 666.895996 28.908001 L 666.895996 50.095501 L 680.971008 50.095501 Z"/>
    <path id="path14" fill="#b4b4b4" stroke="none" d="M 697.984985 50.095501 L 697.984985 31.208401 L 705.067993 31.208401 L 705.067993 28.908001 L 688.117981 28.908001 L 688.117981 31.208401 L 695.231018 31.208401 L 695.231018 50.095501 L 697.984985 50.095501 Z"/>
    <path id="path15" fill="#b4b4b4" stroke="none" d="M 728.710999 50.095501 L 721.054016 28.908001 L 717.664001 28.908001 L 710.036011 50.095501 L 712.880981 50.095501 L 715.060974 43.799801 L 723.565979 43.799801 L 725.744995 50.095501 L 728.710999 50.095501 Z M 718.632019 33.4785 C 718.874023 32.751999 719.085999 32.116402 719.297974 31.4203 L 719.994019 33.4785 L 722.778992 41.499401 L 715.846985 41.499401 L 718.632019 33.4785 Z"/>
    <path id="path16" fill="#b4b4b4" stroke="none" d="M 736.741028 28 C 739.55603 31.571602 741.583984 35.536701 741.583984 41.015099 C 741.583984 46.433102 739.55603 50.398102 736.741028 54 L 739.283997 54 C 742.038025 50.973202 744.21698 46.735699 744.21698 40.984901 C 744.21698 35.203701 742.038025 31.026802 739.283997 28 L 736.741028 28 Z"/>
</svg>
